<svg width="48" height="48" viewBox="0 0 48 48" fill="none" xmlns="http://www.w3.org/2000/svg">
<path d="M40.8258 0H7.17422C3.22844 0 0 3.22844 0 7.17422V40.8258C0 44.7716 3.22844 48 7.17422 48H40.8258C44.7716 48 48 44.7716 48 40.8258V7.17422C48 3.22844 44.7716 0 40.8258 0ZM45.3942 40C45.3942 43 43.5 45.3947 40.5 45.3947H8C4.5 45.3947 2.60533 43.5 2.60533 40V8C2.60533 4.5 4.5 2.60533 8 2.60533H40.5004C43.5 2.60533 45.3942 4 45.3947 8L45.3942 40Z" fill="white"/>
<path d="M40.6898 21.1961H26.8275V7.31031C26.8275 6.08765 26.5457 5.08765 25.3231 5.08765H22.6764C21.4537 5.08765 21.1831 6.08809 21.1831 7.31031V21.1961H7.31019C6.08752 21.1961 5.08752 21.4539 5.08752 22.6765V25.3232C5.08752 26.5459 6.08797 26.525 7.31019 26.525H21.1835V40.6899C21.1835 41.9125 21.4542 42.9125 22.6769 42.9125H25.3235C26.5462 42.9125 26.828 41.9121 26.828 40.6899V26.525H40.6902C41.9129 26.525 42.9129 26.5454 42.9129 25.3232V22.6765C42.9129 21.4539 41.9124 21.1961 40.6902 21.1961H40.6898Z" fill="white"/>
</svg>
