<svg width="1024" height="384" viewBox="0 0 1024 384" fill="none" xmlns="http://www.w3.org/2000/svg">
<rect width="1024" height="384" fill="#5E728B"/>
<rect x="297" y="51" width="429" height="281" rx="20" stroke="#3B4858" stroke-width="20"/>
<path d="M712 332L577.978 139.943C577.978 139.943 574.731 135 570.745 135C566.686 135 563.513 139.427 563.513 139.427L489.343 246.707C489.343 246.707 485.948 251.355 482.332 251.355C478.642 251.355 475.616 246.928 475.616 246.928L429.712 182.442C429.712 182.442 426.391 177.13 422.554 177.13C418.642 177.13 415.321 182.221 415.321 182.221L312 332H712Z" fill="#3B4858"/>
<path d="M383.5 157C407.536 157 427 137.536 427 113.5C427 89.4644 407.536 70 383.5 70C359.464 70 340 89.4644 340 113.5C340 137.536 359.464 157 383.5 157Z" fill="#3B4858"/>
</svg>
