<svg width="1080" height="1080" viewBox="0 0 1080 1080" fill="none" xmlns="http://www.w3.org/2000/svg">
<path d="M664.333 627.956L627.96 664.33C618.478 673.811 618.478 689.185 627.96 698.667L1002.21 1072.92C1011.69 1082.4 1027.07 1082.4 1036.55 1072.92L1072.92 1036.54C1082.4 1027.06 1082.4 1011.69 1072.92 1002.21L698.67 627.956C689.188 618.474 673.815 618.474 664.333 627.956Z" fill="white"/>
<path d="M394.5 0C176.63 0 0 176.63 0 394.5C0 612.37 176.63 789 394.5 789C612.37 789 789 612.37 789 394.5C789 176.63 612.38 0 394.5 0ZM394.5 716.88C216.46 716.88 72.12 572.55 72.12 394.5C72.12 216.45 216.46 72.13 394.5 72.13C572.54 72.13 716.88 216.46 716.88 394.51C716.88 572.56 572.55 716.89 394.5 716.89V716.88Z" fill="white"/>
<path opacity="0.5" d="M394.5 716.88C572.546 716.88 716.88 572.546 716.88 394.5C716.88 216.455 572.546 72.1201 394.5 72.1201C216.454 72.1201 72.12 216.455 72.12 394.5C72.12 572.546 216.454 716.88 394.5 716.88Z" fill="white"/>
</svg>
